<?xml version="1.0" encoding="UTF-8" standalone="no"?><!DOCTYPE svg PUBLIC "-//W3C//DTD SVG 1.1//EN" "http://www.w3.org/Graphics/SVG/1.1/DTD/svg11.dtd"><svg width="100%" height="100%" viewBox="0 0 281 277" version="1.1" xmlns="http://www.w3.org/2000/svg" xmlns:xlink="http://www.w3.org/1999/xlink" xml:space="preserve" xmlns:serif="http://www.serif.com/" style="fill-rule:evenodd;clip-rule:evenodd;stroke-linecap:round;stroke-linejoin:round;stroke-miterlimit:1.5;"><g><path d="M150.221,212.769l27.443,7.265" style="fill:none;stroke:#ababab;stroke-width:16.96px;"/><path d="M137.025,267.551l40.639,-47.517" style="fill:none;stroke:#ababab;stroke-width:16.96px;"/><path d="M184.659,180.518l45.12,9.918" style="fill:none;stroke:#ababab;stroke-width:16.96px;"/><path d="M189.14,237.952l40.639,-47.516" style="fill:none;stroke:#ababab;stroke-width:16.96px;"/><path d="M218.304,129.518l53.347,11.958" style="fill:none;stroke:#ababab;stroke-width:16.96px;"/><path d="M250.408,166.315l21.243,-24.839" style="fill:none;stroke:#ababab;stroke-width:16.96px;"/><path d="M136.23,59.324l-20.088,-50.846" style="fill:none;stroke:#ababab;stroke-width:16.96px;"/><path d="M94.899,33.316l21.243,-24.838" style="fill:none;stroke:#ababab;stroke-width:16.96px;"/><path d="M87.069,97.055l-16.796,-43.035" style="fill:none;stroke:#ababab;stroke-width:16.96px;"/><path d="M29.635,101.536l40.638,-47.516" style="fill:none;stroke:#ababab;stroke-width:16.96px;"/><path d="M60.55,136.079l-11.434,-25.984" style="fill:none;stroke:#ababab;stroke-width:16.96px;"/><path d="M8.478,157.612l40.638,-47.517" style="fill:none;stroke:#ababab;stroke-width:16.96px;"/><path d="M204.198,33.853c12.24,-0.657 22.841,8.409 24.09,20.603c2.413,23.551 6.212,60.619 8.428,82.253c1.095,10.687 -3.625,21.141 -12.367,27.386c-20.684,14.778 -59.197,42.293 -81.902,58.515c-10.604,7.576 -25.007,6.948 -34.911,-1.522c-15.792,-13.506 -39.043,-33.392 -53.34,-45.619c-7.486,-6.402 -9.643,-17.083 -5.229,-25.889c11.373,-22.69 32.963,-65.766 45.544,-90.866c6.042,-12.055 18.085,-19.943 31.55,-20.666c22.073,-1.185 56.035,-3.008 78.137,-4.195Z" style="fill:#aaa;stroke:#ababab;stroke-width:1px;"/><path d="M139.136,132.046l-54.592,66.747" style="fill:none;stroke:#000507;stroke-width:6.06px;"/><path d="M177.031,54.942c5.166,4.417 3.358,15.021 -4.034,23.664c-7.392,8.644 -17.587,12.074 -22.752,7.656c-5.166,-4.418 -3.358,-15.022 4.034,-23.665c7.392,-8.643 17.587,-12.073 22.752,-7.655Z" style="fill:#aaa;stroke:#000507;stroke-width:6.06px;"/><path d="M212.309,85.112c5.166,4.418 3.358,15.022 -4.034,23.665c-7.392,8.643 -17.587,12.074 -22.753,7.656c-5.165,-4.418 -3.358,-15.022 4.034,-23.665c7.392,-8.643 17.588,-12.073 22.753,-7.656Z" style="fill:#aaa;stroke:#000507;stroke-width:6.06px;"/></g></svg>